<?xml version="1.0" standalone="no"?><!DOCTYPE svg PUBLIC "-//W3C//DTD SVG 1.1//EN" "http://www.w3.org/Graphics/SVG/1.1/DTD/svg11.dtd"><svg t="1582944062145" class="icon" viewBox="0 0 1024 1024" version="1.1" xmlns="http://www.w3.org/2000/svg" p-id="1057" xmlns:xlink="http://www.w3.org/1999/xlink" width="200" height="200"><defs><style type="text/css"></style></defs><path d="M512 96c19.2 0 32 12.8 32 32s-12.8 32-32 32C316.8 160 160 316.8 160 512c0 19.2-12.8 32-32 32s-32-12.8-32-32C96 281.6 281.6 96 512 96z m0 832c-19.2 0-32-12.8-32-32s12.8-32 32-32c195.2 0 352-156.8 352-352 0-19.2 12.8-32 32-32s32 12.8 32 32c0 230.4-185.6 416-416 416z" fill="#50E3C2" p-id="1058"></path><path d="M499.2 387.2c-12.8 12.8-32 12.8-44.8 0-12.8-12.8-12.8-32 0-44.8l112-112c64-64 163.2-64 227.2 0s64 163.2 0 227.2l-112 112c-12.8 12.8-32 12.8-44.8 0-12.8-12.8-12.8-32 0-44.8l112-112c38.4-38.4 38.4-99.2 0-134.4-38.4-38.4-99.2-38.4-134.4 0l-115.2 108.8zM387.2 499.2c12.8-12.8 12.8-32 0-44.8s-32-12.8-44.8 0l-112 112c-64 64-64 163.2 0 227.2s163.2 64 227.2 0l112-112c12.8-12.8 12.8-32 0-44.8s-32-12.8-44.8 0l-112 112c-38.4 38.4-99.2 38.4-134.4 0-38.4-38.4-38.4-99.2 0-134.4l108.8-115.2z" fill="#597EF7" p-id="1059"></path><path d="M409.6 566.4l156.8-156.8c12.8-12.8 32-12.8 44.8 0 12.8 12.8 12.8 32 0 44.8l-156.8 156.8c-12.8 12.8-32 12.8-44.8 0-12.8-9.6-12.8-32 0-44.8z" fill="#597EF7" p-id="1060"></path></svg>